Coordinates
version=1
nRows=32
nColumns=22
inDegrees=yes

Units are S.I. units (second, meters, Newtons, ...)
If the header above contains a line with 'inDegrees', this indicates whether rotational values are in degrees (yes) or radians (no).

endheader
time	pelvis_tilt	pelvis_list	pelvis_rotation	pelvis_tx	pelvis_ty	pelvis_tz	hip_flexion_r	hip_adduction_r	hip_rotation_r	knee_angle_r	ankle_angle_r	subtalar_angle_r	hip_flexion_l	hip_adduction_l	hip_rotation_l	knee_angle_l	ankle_angle_l	subtalar_angle_l	lumbar_extension	lumbar_bending	lumbar_rotation
      2.59000000	     14.13040095	     -8.67147132	     14.76271377	      1.16383685	      0.93608605	      0.09699220	     -1.22195487	     15.07277730	     -8.57891156	    -16.22288970	      4.63948698	     -5.95706930	      8.08282819	    -13.89037509	      5.23884766	    -68.09981468	     11.92802434	    -11.53206394	    -12.30822770	     10.75929793	     -8.18353723
      2.60000000	     14.16366583	     -8.51754183	     14.50550233	      1.16792898	      0.93673817	      0.09666768	     -1.64807695	     14.95881060	     -8.29085248	    -16.18750541	      4.78273076	     -6.22383135	      8.66134669	    -13.55846262	      5.13922781	    -67.20746318	     13.21263313	    -11.71090042	    -12.60117429	     10.61695731	     -7.82503923
      2.61000000	     14.15352497	     -8.38271992	     14.22944482	      1.17188984	      0.93729917	      0.09637019	     -2.00121877	     14.84499177	     -7.99925770	    -16.17633004	      4.98612261	     -6.34254140	      9.19807264	    -13.26341261	      4.99227638	    -66.15744942	     14.39707005	    -11.50790627	    -12.83646668	     10.47868532	     -7.44913608
      2.62000000	     14.16217067	     -8.22151393	     13.92967745	      1.17572684	      0.93792022	      0.09608536	     -2.37843749	     14.70101010	     -7.67771835	    -16.16054132	      5.18268528	     -6.50945973	      9.58759363	    -12.97420234	      4.77357846	    -64.92781588	     15.49247382	    -11.14909028	    -13.09760791	     10.30679123	     -7.05422252
      2.63000000	     14.18550809	     -8.03907385	     13.61092284	      1.17941580	      0.93858954	      0.09580944	     -2.77941416	     14.53332924	     -7.29955544	    -16.12240872	      5.36288695	     -6.72031034	      9.84197162	    -12.68614293	      4.51296355	    -63.54333606	     16.42415083	    -10.49137584	    -13.38282003	     10.11178007	     -6.66242843
      2.64000000	     14.16993247	     -7.88137529	     13.27166907	      1.18295729	      0.93915562	      0.09556280	     -3.09649687	     14.36332678	     -6.97452072	    -16.13117494	      5.55339622	     -6.84964826	     10.05354528	    -12.45112265	      4.19564047	    -62.05727647	     17.26678386	     -9.70425881	    -13.61649425	      9.92877812	     -6.25263370
      2.65000000	     14.12177822	     -7.74381188	     12.91313659	      1.18636194	      0.93962618	      0.09535296	     -3.33857823	     14.19136051	     -6.67952585	    -16.18936380	      5.77946971	     -6.90458602	     10.21719406	    -12.26820005	      3.81452441	    -60.49111681	     18.02410186	     -9.06810523	    -13.80469956	      9.75202356	     -5.81221084
      2.66000000	     14.06292800	     -7.60562795	     12.54319527	      1.18960350	      0.94006494	      0.09513386	     -3.55818014	     14.00626388	     -6.37256456	    -16.24406780	      5.97029539	     -6.93870086	     10.29782576	    -12.08835972	      3.42286367	    -58.84911885	     18.66052130	     -8.56751521	    -13.98431778	      9.57510152	     -5.38944523
      2.67000000	     13.99999848	     -7.46640495	     12.18525707	      1.19272645	      0.94047739	      0.09489714	     -3.77235568	     13.81705283	     -6.04737795	    -16.28116397	      6.13852111	     -6.95612262	     10.30035454	    -11.91546892	      3.03398297	    -57.15608477	     19.17375394	     -8.28404182	    -14.14776553	      9.39424033	     -4.99081727
      2.68000000	     13.93647353	     -7.33265594	     11.82340985	      1.19573026	      0.94086118	      0.09466012	     -3.97829888	     13.62703421	     -5.72184270	    -16.31105695	      6.30072470	     -6.95304075	     10.22290224	    -11.75317733	      2.64768961	    -55.43515424	     19.61609307	     -8.28951702	    -14.30818365	      9.21786484	     -4.61116322
      2.69000000	     13.86583662	     -7.21064874	     11.46423395	      1.19863085	      0.94119205	      0.09439413	     -4.16036246	     13.43933420	     -5.41384292	    -16.35203231	      6.47897762	     -6.92104829	     10.09222243	    -11.60928022	      2.26541168	    -53.72403859	     20.01460404	     -8.54347937	    -14.45140776	      9.05742319	     -4.24087003
      2.70000000	     13.78549880	     -7.10323804	     11.12611892	      1.20143261	      0.94146334	      0.09410072	     -4.31760631	     13.26180938	     -5.13297490	    -16.39324349	      6.65804050	     -6.85529047	      9.92809726	    -11.48246037	      1.92113252	    -52.04932444	     20.38497035	     -8.89283768	    -14.57327140	      8.91114205	     -3.90342876
      2.71000000	     13.68553428	     -7.01067441	     10.81023646	      1.20415029	      0.94165936	      0.09376888	     -4.43949393	     13.09465762	     -4.86623395	    -16.43780845	      6.85924330	     -6.75402637	      9.75133112	    -11.37324363	      1.61625877	    -50.43388589	     20.70746188	     -9.17520258	    -14.66118249	      8.78251668	     -3.61862927
      2.72000000	     13.56792375	     -6.93721675	     10.50672198	      1.20677739	      0.94178135	      0.09341378	     -4.51922145	     12.93820479	     -4.64410850	    -16.50056257	      7.10368154	     -6.62191085	      9.56268985	    -11.28569343	      1.35469971	    -48.89191254	     20.97889877	     -9.36019548	    -14.72498017	      8.67328359	     -3.34643007
      2.73000000	     13.48828828	     -6.85544673	     10.26083910	      1.20933787	      0.94195987	      0.09294084	     -4.66781977	     12.78919407	     -4.39632821	    -16.49277812	      7.29718524	     -6.37650634	      9.29013456	    -11.18101284	      1.19439889	    -47.39932610	     21.22386507	     -9.59472281	    -14.81941443	      8.57665325	     -3.18482849
      2.74000000	     13.37386290	     -6.79246708	     10.03394693	      1.21180203	      0.94204063	      0.09243589	     -4.75263738	     12.64827355	     -4.19931321	    -16.50767558	      7.53553487	     -6.08511401	      9.03629079	    -11.08963658	      1.10206349	    -46.00153041	     21.40130132	     -9.72224933	    -14.86941564	      8.49637388	     -3.04973365
      2.75000000	     13.24885701	     -6.73391255	      9.83837106	      1.21417391	      0.94208381	      0.09185309	     -4.81820261	     12.50866327	     -4.02734458	    -16.51658162	      7.78700734	     -5.76647214	      8.76865947	    -10.99454493	      1.09132207	    -44.68879898	     21.49623833	     -9.77329554	    -14.90179696	      8.42866818	     -2.96253061
      2.76000000	     13.08736104	     -6.67746039	      9.66259919	      1.21644547	      0.94205297	      0.09121235	     -4.82482308	     12.35997228	     -3.90933050	    -16.54383613	      8.06225582	     -5.52727081	      8.51822505	    -10.88851265	      1.15711353	    -43.46914906	     21.50662611	     -9.74840716	    -14.88978400	      8.36221985	     -2.90955073
      2.77000000	     12.94906852	     -6.61028298	      9.51809537	      1.21862537	      0.94207402	      0.09048521	     -4.87396400	     12.20385129	     -3.80014307	    -16.52382977	      8.28132474	     -5.23597146	      8.20989629	    -10.76515322	      1.31241378	    -42.32623574	     21.41217143	     -9.65606214	    -14.90169532	      8.29501431	     -2.90750236
      2.78000000	     12.80338000	     -6.54262367	      9.39589566	      1.22072260	      0.94209529	      0.08967236	     -4.91804975	     12.04222033	     -3.72204304	    -16.48499763	      8.46531879	     -4.96173847	      7.88503543	    -10.63563607	      1.52751575	    -41.26958611	     21.23341569	     -9.45680033	    -14.89943332	      8.23520241	     -2.93331779
      2.79000000	     12.66998337	     -6.48467554	      9.28841860	      1.22275213	      0.94214741	      0.08880273	     -4.99089120	     11.89445268	     -3.63023825	    -16.40274538	      8.59030874	     -4.66056416	      7.52012413	    -10.52076947	      1.77954921	    -40.29391354	     21.01127141	     -9.02856207	    -14.90481781	      8.19482756	     -2.98445553
      2.80000000	     12.49474105	     -6.39480352	      9.17621464	      1.22474146	      0.94217724	      0.08788481	     -5.01350543	     11.69220708	     -3.62261197	    -16.33595247	      8.75196016	     -4.52058597	      7.15991417	    -10.36867348	      2.01435834	    -39.38237579	     20.73271846	     -8.66524208	    -14.85631004	      8.10879360	     -3.03705337
      2.81000000	     12.35373937	     -6.29922204	      9.06530786	      1.22670091	      0.94229944	      0.08692145	     -5.10157184	     11.49003948	     -3.58898882	    -16.21377919	      8.87205602	     -4.36752449	      6.71873778	    -10.22671531	      2.20943334	    -38.50762451	     20.47921508	     -8.08924603	    -14.83907607	      8.02630732	     -3.09658115
      2.82000000	     12.21384014	     -6.22612077	      8.95384853	      1.22862951	      0.94244750	      0.08595064	     -5.21367113	     11.31791271	     -3.49702310	    -16.03572576	      8.93717702	     -4.21582930	      6.25305117	    -10.13059721	      2.32081473	    -37.67024919	     20.29584522	     -7.32063993	    -14.81119008	      7.96813654	     -3.16526898
      2.83000000	     12.05926631	     -6.11584301	      8.82509524	      1.23053446	      0.94263657	      0.08495848	     -5.31341963	     11.09188713	     -3.46231289	    -15.86227599	      9.03109053	     -4.12051885	      5.75315024	    -10.00595912	      2.30278302	    -36.81843839	     20.16939092	     -6.74172225	    -14.76388793	      7.86275236	     -3.23040098
      2.84000000	     11.90789188	     -5.98744960	      8.68553133	      1.23240479	      0.94288423	      0.08393896	     -5.41783179	     10.83948604	     -3.44725873	    -15.69018740	      9.13646739	     -4.03815666	      5.20822636	     -9.88355945	      2.11018037	    -35.92651901	     20.10157222	     -6.24988470	    -14.71539469	      7.73775297	     -3.24885198
      2.85000000	     11.74817467	     -5.86414305	      8.53816736	      1.23421782	      0.94317083	      0.08295143	     -5.53332958	     10.59301337	     -3.40830040	    -15.46800783	      9.19720704	     -3.95475849	      4.65006041	     -9.78757533	      1.74679632	    -34.99230510	     20.11956181	     -5.80228786	    -14.65767577	      7.61121530	     -3.28617979
      2.86000000	     11.59886616	     -5.73569696	      8.40984293	      1.23598044	      0.94352502	      0.08191784	     -5.66958776	     10.34420788	     -3.36769478	    -15.22304669	      9.23415864	     -3.85521081	      4.06219242	     -9.70677298	      1.19460292	    -34.00202895	     20.16143788	     -5.41033864	    -14.60249917	      7.49059826	     -3.37124728
      2.87000000	     11.41359529	     -5.58971190	      8.26602291	      1.23767204	      0.94389180	      0.08089883	     -5.76260866	     10.06207737	     -3.37566668	    -14.98091908	      9.29481441	     -3.75904155	      3.48567391	     -9.60493249	      0.47762176	    -32.94821313	     20.21980742	     -5.20170423	    -14.51221622	      7.33873181	     -3.39708228
      2.88000000	     11.24110835	     -5.42931887	      8.14590852	      1.23927857	      0.94432660	      0.07984285	     -5.87607641	      9.76886202	     -3.39096253	    -14.71839497	      9.31016554	     -3.63062016	      2.88416592	     -9.48953704	     -0.36686563	    -31.84362235	     20.29317796	     -5.06993271	    -14.43871549	      7.18169471	     -3.49643355
      2.89000000	     11.04297759	     -5.25115281	      8.03591900	      1.24081446	      0.94476804	      0.07875749	     -5.96053294	      9.44894671	     -3.44514104	    -14.45299591	      9.32326863	     -3.47443033	      2.29878322	     -9.33664608	     -1.28776768	    -30.69690136	     20.35648201	     -5.03127642	    -14.33691137	      7.00160849	     -3.59205701
      2.90000000	     10.83077736	     -5.05596523	      7.95114411	      1.24228229	      0.94521211	      0.07762282	     -6.02953279	      9.10945669	     -3.53194673	    -14.18087612	      9.32043699	     -3.28010044	      1.72792074	     -9.14344128	     -2.22396860	    -29.52552437	     20.40222493	     -5.04135362	    -14.21649900	      6.80815224	     -3.71371200
